<?xml version="1.0" encoding="UTF-8" standalone="no"?><svg xmlns="http://www.w3.org/2000/svg" xmlns:xlink="http://www.w3.org/1999/xlink" contentScriptType="application/ecmascript" contentStyleType="text/css" height="654px" preserveAspectRatio="none" style="width:676px;height:654px;" version="1.1" viewBox="0 0 676 654" width="676px" zoomAndPan="magnify"><defs><filter height="300%" id="f1aspgi6kbljex" width="300%" x="-1" y="-1"><feGaussianBlur result="blurOut" stdDeviation="2.0"/><feColorMatrix in="blurOut" result="blurOut2" type="matrix" values="0 0 0 0 0 0 0 0 0 0 0 0 0 0 0 0 0 0 .4 0"/><feOffset dx="4.0" dy="4.0" in="blurOut2" result="blurOut3"/><feBlend in="SourceGraphic" in2="blurOut3" mode="normal"/></filter></defs><g><!--MD5=[3fd616f346a44cd59a91eb10b19e157c]
class User--><rect codeLine="1" fill="#FEFECE" filter="url(#f1aspgi6kbljex)" height="124.8281" id="User" style="stroke:#A80036;stroke-width:1.5;" width="150" x="309.5" y="217"/><ellipse cx="365.75" cy="233" fill="#ADD1B2" rx="11" ry="11" style="stroke:#A80036;stroke-width:1.0;"/><path d="M368.0938,228.6719 C367.1563,228.2344 366.5625,228.0938 365.6875,228.0938 C363.0625,228.0938 361.0625,230.1719 361.0625,232.8906 L361.0625,234.0156 C361.0625,236.5938 363.1719,238.4844 366.0625,238.4844 C367.2813,238.4844 368.4375,238.1875 369.1875,237.6406 C369.7656,237.2344 370.0938,236.7813 370.0938,236.3906 C370.0938,235.9375 369.7031,235.5469 369.2344,235.5469 C369.0156,235.5469 368.8125,235.625 368.625,235.8125 C368.1719,236.2969 368.1719,236.2969 367.9844,236.3906 C367.5625,236.6563 366.875,236.7813 366.1094,236.7813 C364.0625,236.7813 362.7656,235.6875 362.7656,233.9844 L362.7656,232.8906 C362.7656,231.1094 364.0156,229.7969 365.75,229.7969 C366.3281,229.7969 366.9375,229.9531 367.4063,230.2031 C367.8906,230.4844 368.0625,230.7031 368.1563,231.1094 C368.2188,231.5156 368.25,231.6406 368.3906,231.7656 C368.5313,231.9063 368.7656,232.0156 368.9844,232.0156 C369.25,232.0156 369.5156,231.875 369.6875,231.6563 C369.7969,231.5 369.8281,231.3125 369.8281,230.8906 L369.8281,229.4688 C369.8281,229.0313 369.8125,228.9063 369.7188,228.75 C369.5625,228.4844 369.2813,228.3438 368.9844,228.3438 C368.6875,228.3438 368.4844,228.4375 368.2656,228.75 L368.0938,228.6719 Z " fill="#000000"/><text fill="#000000" font-family="sans-serif" font-size="12" lengthAdjust="spacing" textLength="29" x="386.25" y="237.1543">User</text><line style="stroke:#A80036;stroke-width:1.5;" x1="310.5" x2="458.5" y1="249" y2="249"/><rect fill="none" height="6" style="stroke:#C82930;stroke-width:1.0;" width="6" x="317.5" y="257"/><text fill="#000000" font-family="sans-serif" font-size="11" lengthAdjust="spacing" textLength="100" x="329.5" y="263.2104">username : string</text><rect fill="none" height="6" style="stroke:#C82930;stroke-width:1.0;" width="6" x="317.5" y="269.8047"/><text fill="#000000" font-family="sans-serif" font-size="11" lengthAdjust="spacing" textLength="95" x="329.5" y="276.0151">password : string</text><rect fill="none" height="6" style="stroke:#C82930;stroke-width:1.0;" width="6" x="317.5" y="282.6094"/><text fill="#000000" font-family="sans-serif" font-size="11" lengthAdjust="spacing" textLength="97" x="329.5" y="288.8198">firstName : string</text><rect fill="none" height="6" style="stroke:#C82930;stroke-width:1.0;" width="6" x="317.5" y="295.4141"/><text fill="#000000" font-family="sans-serif" font-size="11" lengthAdjust="spacing" textLength="96" x="329.5" y="301.6245">lastName : string</text><rect fill="none" height="6" style="stroke:#C82930;stroke-width:1.0;" width="6" x="317.5" y="308.2188"/><text fill="#000000" font-family="sans-serif" font-size="11" lengthAdjust="spacing" textLength="74" x="329.5" y="314.4292">email : string</text><rect fill="none" height="6" style="stroke:#C82930;stroke-width:1.0;" width="6" x="317.5" y="321.0234"/><text fill="#000000" font-family="sans-serif" font-size="11" lengthAdjust="spacing" textLength="124" x="329.5" y="327.2339">date_naiss : datetime</text><line style="stroke:#A80036;stroke-width:1.5;" x1="310.5" x2="458.5" y1="333.8281" y2="333.8281"/><!--MD5=[bea5b0d46523efab5ea1c1d339f396f0]
class Message--><rect codeLine="11" fill="#FEFECE" filter="url(#f1aspgi6kbljex)" height="86.4141" id="Message" style="stroke:#A80036;stroke-width:1.5;" width="153" x="7" y="236.5"/><ellipse cx="51.75" cy="252.5" fill="#ADD1B2" rx="11" ry="11" style="stroke:#A80036;stroke-width:1.0;"/><path d="M54.0938,248.1719 C53.1563,247.7344 52.5625,247.5938 51.6875,247.5938 C49.0625,247.5938 47.0625,249.6719 47.0625,252.3906 L47.0625,253.5156 C47.0625,256.0938 49.1719,257.9844 52.0625,257.9844 C53.2813,257.9844 54.4375,257.6875 55.1875,257.1406 C55.7656,256.7344 56.0938,256.2813 56.0938,255.8906 C56.0938,255.4375 55.7031,255.0469 55.2344,255.0469 C55.0156,255.0469 54.8125,255.125 54.625,255.3125 C54.1719,255.7969 54.1719,255.7969 53.9844,255.8906 C53.5625,256.1563 52.875,256.2813 52.1094,256.2813 C50.0625,256.2813 48.7656,255.1875 48.7656,253.4844 L48.7656,252.3906 C48.7656,250.6094 50.0156,249.2969 51.75,249.2969 C52.3281,249.2969 52.9375,249.4531 53.4063,249.7031 C53.8906,249.9844 54.0625,250.2031 54.1563,250.6094 C54.2188,251.0156 54.25,251.1406 54.3906,251.2656 C54.5313,251.4063 54.7656,251.5156 54.9844,251.5156 C55.25,251.5156 55.5156,251.375 55.6875,251.1563 C55.7969,251 55.8281,250.8125 55.8281,250.3906 L55.8281,248.9688 C55.8281,248.5313 55.8125,248.4063 55.7188,248.25 C55.5625,247.9844 55.2813,247.8438 54.9844,247.8438 C54.6875,247.8438 54.4844,247.9375 54.2656,248.25 L54.0938,248.1719 Z " fill="#000000"/><text fill="#000000" font-family="sans-serif" font-size="12" lengthAdjust="spacing" textLength="55" x="72.25" y="256.6543">Message</text><line style="stroke:#A80036;stroke-width:1.5;" x1="8" x2="159" y1="268.5" y2="268.5"/><rect fill="none" height="6" style="stroke:#C82930;stroke-width:1.0;" width="6" x="15" y="276.5"/><text fill="#000000" font-family="sans-serif" font-size="11" lengthAdjust="spacing" textLength="64" x="27" y="282.7104">Msg : string</text><rect fill="none" height="6" style="stroke:#C82930;stroke-width:1.0;" width="6" x="15" y="289.3047"/><text fill="#000000" font-family="sans-serif" font-size="11" lengthAdjust="spacing" textLength="127" x="27" y="295.5151">date_envoi : datetime</text><rect fill="none" height="6" style="stroke:#C82930;stroke-width:1.0;" width="6" x="15" y="302.1094"/><text fill="#000000" font-family="sans-serif" font-size="11" lengthAdjust="spacing" textLength="95" x="27" y="308.3198">isRead : boolean</text><line style="stroke:#A80036;stroke-width:1.5;" x1="8" x2="159" y1="314.9141" y2="314.9141"/><!--MD5=[d22815ff63be9cac9a63f8d1ea27d033]
class Article--><rect codeLine="18" fill="#FEFECE" filter="url(#f1aspgi6kbljex)" height="112.0234" id="Article" style="stroke:#A80036;stroke-width:1.5;" width="125" x="279" y="528"/><ellipse cx="318.75" cy="544" fill="#ADD1B2" rx="11" ry="11" style="stroke:#A80036;stroke-width:1.0;"/><path d="M321.0938,539.6719 C320.1563,539.2344 319.5625,539.0938 318.6875,539.0938 C316.0625,539.0938 314.0625,541.1719 314.0625,543.8906 L314.0625,545.0156 C314.0625,547.5938 316.1719,549.4844 319.0625,549.4844 C320.2813,549.4844 321.4375,549.1875 322.1875,548.6406 C322.7656,548.2344 323.0938,547.7813 323.0938,547.3906 C323.0938,546.9375 322.7031,546.5469 322.2344,546.5469 C322.0156,546.5469 321.8125,546.625 321.625,546.8125 C321.1719,547.2969 321.1719,547.2969 320.9844,547.3906 C320.5625,547.6563 319.875,547.7813 319.1094,547.7813 C317.0625,547.7813 315.7656,546.6875 315.7656,544.9844 L315.7656,543.8906 C315.7656,542.1094 317.0156,540.7969 318.75,540.7969 C319.3281,540.7969 319.9375,540.9531 320.4063,541.2031 C320.8906,541.4844 321.0625,541.7031 321.1563,542.1094 C321.2188,542.5156 321.25,542.6406 321.3906,542.7656 C321.5313,542.9063 321.7656,543.0156 321.9844,543.0156 C322.25,543.0156 322.5156,542.875 322.6875,542.6563 C322.7969,542.5 322.8281,542.3125 322.8281,541.8906 L322.8281,540.4688 C322.8281,540.0313 322.8125,539.9063 322.7188,539.75 C322.5625,539.4844 322.2813,539.3438 321.9844,539.3438 C321.6875,539.3438 321.4844,539.4375 321.2656,539.75 L321.0938,539.6719 Z " fill="#000000"/><text fill="#000000" font-family="sans-serif" font-size="12" lengthAdjust="spacing" textLength="38" x="338.25" y="548.1543">Article</text><line style="stroke:#A80036;stroke-width:1.5;" x1="280" x2="403" y1="560" y2="560"/><rect fill="none" height="6" style="stroke:#C82930;stroke-width:1.0;" width="6" x="287" y="568"/><text fill="#000000" font-family="sans-serif" font-size="11" lengthAdjust="spacing" textLength="65" x="299" y="574.2104">titre : string</text><rect fill="none" height="6" style="stroke:#C82930;stroke-width:1.0;" width="6" x="287" y="580.8047"/><text fill="#000000" font-family="sans-serif" font-size="11" lengthAdjust="spacing" textLength="96" x="299" y="587.0151">categorie : string</text><rect fill="none" height="6" style="stroke:#C82930;stroke-width:1.0;" width="6" x="287" y="593.6094"/><text fill="#000000" font-family="sans-serif" font-size="11" lengthAdjust="spacing" textLength="36" x="299" y="599.8198">image</text><rect fill="none" height="6" style="stroke:#C82930;stroke-width:1.0;" width="6" x="287" y="606.4141"/><text fill="#000000" font-family="sans-serif" font-size="11" lengthAdjust="spacing" textLength="32" x="299" y="612.6245">video</text><rect fill="none" height="6" style="stroke:#C82930;stroke-width:1.0;" width="6" x="287" y="619.2188"/><text fill="#000000" font-family="sans-serif" font-size="11" lengthAdjust="spacing" textLength="99" x="299" y="625.4292">nbreJaimeArt : int</text><line style="stroke:#A80036;stroke-width:1.5;" x1="280" x2="403" y1="632.0234" y2="632.0234"/><!--MD5=[b76c921dec148580e221480ea486da2a]
class Friend--><rect codeLine="26" fill="#FEFECE" filter="url(#f1aspgi6kbljex)" height="48" id="Friend" style="stroke:#A80036;stroke-width:1.5;" width="70" x="349.5" y="7"/><ellipse cx="364.5" cy="23" fill="#ADD1B2" rx="11" ry="11" style="stroke:#A80036;stroke-width:1.0;"/><path d="M366.8438,18.6719 C365.9063,18.2344 365.3125,18.0938 364.4375,18.0938 C361.8125,18.0938 359.8125,20.1719 359.8125,22.8906 L359.8125,24.0156 C359.8125,26.5938 361.9219,28.4844 364.8125,28.4844 C366.0313,28.4844 367.1875,28.1875 367.9375,27.6406 C368.5156,27.2344 368.8438,26.7813 368.8438,26.3906 C368.8438,25.9375 368.4531,25.5469 367.9844,25.5469 C367.7656,25.5469 367.5625,25.625 367.375,25.8125 C366.9219,26.2969 366.9219,26.2969 366.7344,26.3906 C366.3125,26.6563 365.625,26.7813 364.8594,26.7813 C362.8125,26.7813 361.5156,25.6875 361.5156,23.9844 L361.5156,22.8906 C361.5156,21.1094 362.7656,19.7969 364.5,19.7969 C365.0781,19.7969 365.6875,19.9531 366.1563,20.2031 C366.6406,20.4844 366.8125,20.7031 366.9063,21.1094 C366.9688,21.5156 367,21.6406 367.1406,21.7656 C367.2813,21.9063 367.5156,22.0156 367.7344,22.0156 C368,22.0156 368.2656,21.875 368.4375,21.6563 C368.5469,21.5 368.5781,21.3125 368.5781,20.8906 L368.5781,19.4688 C368.5781,19.0313 368.5625,18.9063 368.4688,18.75 C368.3125,18.4844 368.0313,18.3438 367.7344,18.3438 C367.4375,18.3438 367.2344,18.4375 367.0156,18.75 L366.8438,18.6719 Z " fill="#000000"/><text fill="#000000" font-family="sans-serif" font-size="12" lengthAdjust="spacing" textLength="38" x="378.5" y="27.1543">Friend</text><line style="stroke:#A80036;stroke-width:1.5;" x1="350.5" x2="418.5" y1="39" y2="39"/><line style="stroke:#A80036;stroke-width:1.5;" x1="350.5" x2="418.5" y1="47" y2="47"/><!--MD5=[fdb5b0492310a4e4733ad590f64c0987]
class Reagir--><rect codeLine="27" fill="#FEFECE" filter="url(#f1aspgi6kbljex)" height="48" id="Reagir" style="stroke:#A80036;stroke-width:1.5;" width="70" x="465.5" y="419"/><ellipse cx="480.5" cy="435" fill="#ADD1B2" rx="11" ry="11" style="stroke:#A80036;stroke-width:1.0;"/><path d="M482.8438,430.6719 C481.9063,430.2344 481.3125,430.0938 480.4375,430.0938 C477.8125,430.0938 475.8125,432.1719 475.8125,434.8906 L475.8125,436.0156 C475.8125,438.5938 477.9219,440.4844 480.8125,440.4844 C482.0313,440.4844 483.1875,440.1875 483.9375,439.6406 C484.5156,439.2344 484.8438,438.7813 484.8438,438.3906 C484.8438,437.9375 484.4531,437.5469 483.9844,437.5469 C483.7656,437.5469 483.5625,437.625 483.375,437.8125 C482.9219,438.2969 482.9219,438.2969 482.7344,438.3906 C482.3125,438.6563 481.625,438.7813 480.8594,438.7813 C478.8125,438.7813 477.5156,437.6875 477.5156,435.9844 L477.5156,434.8906 C477.5156,433.1094 478.7656,431.7969 480.5,431.7969 C481.0781,431.7969 481.6875,431.9531 482.1563,432.2031 C482.6406,432.4844 482.8125,432.7031 482.9063,433.1094 C482.9688,433.5156 483,433.6406 483.1406,433.7656 C483.2813,433.9063 483.5156,434.0156 483.7344,434.0156 C484,434.0156 484.2656,433.875 484.4375,433.6563 C484.5469,433.5 484.5781,433.3125 484.5781,432.8906 L484.5781,431.4688 C484.5781,431.0313 484.5625,430.9063 484.4688,430.75 C484.3125,430.4844 484.0313,430.3438 483.7344,430.3438 C483.4375,430.3438 483.2344,430.4375 483.0156,430.75 L482.8438,430.6719 Z " fill="#000000"/><text fill="#000000" font-family="sans-serif" font-size="12" lengthAdjust="spacing" textLength="38" x="494.5" y="439.1543">Reagir</text><line style="stroke:#A80036;stroke-width:1.5;" x1="466.5" x2="534.5" y1="451" y2="451"/><line style="stroke:#A80036;stroke-width:1.5;" x1="466.5" x2="534.5" y1="459" y2="459"/><!--MD5=[3bf21a48301fa2865a2088e33acf9144]
class Jaime--><rect codeLine="28" fill="#FEFECE" filter="url(#f1aspgi6kbljex)" height="48" id="Jaime" style="stroke:#A80036;stroke-width:1.5;" width="65" x="597" y="560"/><ellipse cx="612" cy="576" fill="#ADD1B2" rx="11" ry="11" style="stroke:#A80036;stroke-width:1.0;"/><path d="M614.3438,571.6719 C613.4063,571.2344 612.8125,571.0938 611.9375,571.0938 C609.3125,571.0938 607.3125,573.1719 607.3125,575.8906 L607.3125,577.0156 C607.3125,579.5938 609.4219,581.4844 612.3125,581.4844 C613.5313,581.4844 614.6875,581.1875 615.4375,580.6406 C616.0156,580.2344 616.3438,579.7813 616.3438,579.3906 C616.3438,578.9375 615.9531,578.5469 615.4844,578.5469 C615.2656,578.5469 615.0625,578.625 614.875,578.8125 C614.4219,579.2969 614.4219,579.2969 614.2344,579.3906 C613.8125,579.6563 613.125,579.7813 612.3594,579.7813 C610.3125,579.7813 609.0156,578.6875 609.0156,576.9844 L609.0156,575.8906 C609.0156,574.1094 610.2656,572.7969 612,572.7969 C612.5781,572.7969 613.1875,572.9531 613.6563,573.2031 C614.1406,573.4844 614.3125,573.7031 614.4063,574.1094 C614.4688,574.5156 614.5,574.6406 614.6406,574.7656 C614.7813,574.9063 615.0156,575.0156 615.2344,575.0156 C615.5,575.0156 615.7656,574.875 615.9375,574.6563 C616.0469,574.5 616.0781,574.3125 616.0781,573.8906 L616.0781,572.4688 C616.0781,572.0313 616.0625,571.9063 615.9688,571.75 C615.8125,571.4844 615.5313,571.3438 615.2344,571.3438 C614.9375,571.3438 614.7344,571.4375 614.5156,571.75 L614.3438,571.6719 Z " fill="#000000"/><text fill="#000000" font-family="sans-serif" font-size="12" lengthAdjust="spacing" textLength="33" x="626" y="580.1543">Jaime</text><line style="stroke:#A80036;stroke-width:1.5;" x1="598" x2="661" y1="592" y2="592"/><line style="stroke:#A80036;stroke-width:1.5;" x1="598" x2="661" y1="600" y2="600"/><!--MD5=[c39d93e13c7ea6df074d806a23a70829]
class Commentaire--><rect codeLine="30" fill="#FEFECE" filter="url(#f1aspgi6kbljex)" height="86.4141" id="Commentaire" style="stroke:#A80036;stroke-width:1.5;" width="123" x="439" y="541"/><ellipse cx="458.95" cy="557" fill="#ADD1B2" rx="11" ry="11" style="stroke:#A80036;stroke-width:1.0;"/><path d="M461.2938,552.6719 C460.3563,552.2344 459.7625,552.0938 458.8875,552.0938 C456.2625,552.0938 454.2625,554.1719 454.2625,556.8906 L454.2625,558.0156 C454.2625,560.5938 456.3719,562.4844 459.2625,562.4844 C460.4813,562.4844 461.6375,562.1875 462.3875,561.6406 C462.9656,561.2344 463.2938,560.7813 463.2938,560.3906 C463.2938,559.9375 462.9031,559.5469 462.4344,559.5469 C462.2156,559.5469 462.0125,559.625 461.825,559.8125 C461.3719,560.2969 461.3719,560.2969 461.1844,560.3906 C460.7625,560.6563 460.075,560.7813 459.3094,560.7813 C457.2625,560.7813 455.9656,559.6875 455.9656,557.9844 L455.9656,556.8906 C455.9656,555.1094 457.2156,553.7969 458.95,553.7969 C459.5281,553.7969 460.1375,553.9531 460.6063,554.2031 C461.0906,554.4844 461.2625,554.7031 461.3563,555.1094 C461.4188,555.5156 461.45,555.6406 461.5906,555.7656 C461.7313,555.9063 461.9656,556.0156 462.1844,556.0156 C462.45,556.0156 462.7156,555.875 462.8875,555.6563 C462.9969,555.5 463.0281,555.3125 463.0281,554.8906 L463.0281,553.4688 C463.0281,553.0313 463.0125,552.9063 462.9188,552.75 C462.7625,552.4844 462.4813,552.3438 462.1844,552.3438 C461.8875,552.3438 461.6844,552.4375 461.4656,552.75 L461.2938,552.6719 Z " fill="#000000"/><text fill="#000000" font-family="sans-serif" font-size="12" lengthAdjust="spacing" textLength="80" x="474.05" y="561.1543">Commentaire</text><line style="stroke:#A80036;stroke-width:1.5;" x1="440" x2="561" y1="573" y2="573"/><rect fill="none" height="6" style="stroke:#C82930;stroke-width:1.0;" width="6" x="447" y="581"/><text fill="#000000" font-family="sans-serif" font-size="11" lengthAdjust="spacing" textLength="96" x="459" y="587.2104">comment : string</text><rect fill="none" height="6" style="stroke:#C82930;stroke-width:1.0;" width="6" x="447" y="593.8047"/><text fill="#000000" font-family="sans-serif" font-size="11" lengthAdjust="spacing" textLength="36" x="459" y="600.0151">image</text><rect fill="none" height="6" style="stroke:#C82930;stroke-width:1.0;" width="6" x="447" y="606.6094"/><text fill="#000000" font-family="sans-serif" font-size="11" lengthAdjust="spacing" textLength="97" x="459" y="612.8198">nbJaimeCom : int</text><line style="stroke:#A80036;stroke-width:1.5;" x1="440" x2="561" y1="619.4141" y2="619.4141"/><polygon fill="#FEFECE" filter="url(#f1aspgi6kbljex)" points="207.5,267.5,219.5,279.5,207.5,291.5,195.5,279.5,207.5,267.5" style="stroke:#A80036;stroke-width:1.5;"/><polygon fill="#FEFECE" filter="url(#f1aspgi6kbljex)" points="384.5,116,396.5,128,384.5,140,372.5,128,384.5,116" style="stroke:#A80036;stroke-width:1.5;"/><ellipse cx="384.5" cy="443" fill="#000000" rx="2" ry="2" style="stroke:none;stroke-width:1.0;"/><!--MD5=[fc396de287584e300b96dfb5b69a31f6]
link Message to diamond--><path codeLine="39" d="M160.031,279.5 C171.775,279.5 183.518,279.5 195.262,279.5 " fill="none" id="Message-diamond" style="stroke:#A80036;stroke-width:1.0;stroke-dasharray:7.0,7.0;"/><!--MD5=[c7c3c0a5911b0e5252868503ef97868e]
link diamond to User--><path codeLine="40" d="M218.542,280.505 C227.006,281.222 238.98,282.125 249.5,282.5 C268.828,283.189 289.72,283.123 309.159,282.716 " fill="none" id="diamond-User" style="stroke:#A80036;stroke-width:1.0;"/><text fill="#000000" font-family="sans-serif" font-size="13" lengthAdjust="spacing" textLength="8" x="293.5968" y="295.8188">1</text><!--MD5=[c7c3c0a5911b0e5252868503ef97868e]
link diamond to User--><path codeLine="41" d="M219.666,279.5 C238.255,279.5 275.179,279.5 309.376,279.5 " fill="none" id="diamond-User-1" style="stroke:#A80036;stroke-width:1.0;"/><text fill="#000000" font-family="sans-serif" font-size="13" lengthAdjust="spacing" textLength="53" x="238" y="272.5669">envoyer</text><text fill="#000000" font-family="sans-serif" font-size="13" lengthAdjust="spacing" textLength="7" x="294.2679" y="275.8092">*</text><!--MD5=[5dad910ad4b66b41d2d490327422a3a2]
link Friend to diamond1--><path codeLine="44" d="M384.5,55.483 C384.5,74.714 384.5,101.073 384.5,115.827 " fill="none" id="Friend-diamond1" style="stroke:#A80036;stroke-width:1.0;stroke-dasharray:7.0,7.0;"/><!--MD5=[71248bb766b72f8cfcc6f930e6081437]
link diamond1 to User--><path codeLine="45" d="M382.499,138.063 C380.782,146.333 378.439,158.919 377.5,170 C376.217,185.141 376.433,201.488 377.332,216.786 " fill="none" id="diamond1-User" style="stroke:#A80036;stroke-width:1.0;"/><text fill="#000000" font-family="sans-serif" font-size="13" lengthAdjust="spacing" textLength="8" x="368.0407" y="205.752">1</text><!--MD5=[71248bb766b72f8cfcc6f930e6081437]
link diamond1 to User--><path codeLine="46" d="M384.5,140.237 C384.5,156.534 384.5,187.933 384.5,216.694 " fill="none" id="diamond1-User-1" style="stroke:#A80036;stroke-width:1.0;"/><text fill="#000000" font-family="sans-serif" font-size="13" lengthAdjust="spacing" textLength="49" x="385.5" y="183.0669">isFriend</text><text fill="#000000" font-family="sans-serif" font-size="13" lengthAdjust="spacing" textLength="7" x="377.1172" y="206.0878">*</text><!--MD5=[d73b5391c1512bd753c5500bfbfa2fb7]
link User to apoint1080--><path d="M384.5,342.017 C384.5,383.378 384.5,431.887 384.5,440.619 " fill="none" id="User-apoint1080" style="stroke:#A80036;stroke-width:1.0;"/><text fill="#000000" font-family="sans-serif" font-size="13" lengthAdjust="spacing" textLength="41" x="385.5" y="385.0669">poster</text><text fill="#000000" font-family="sans-serif" font-size="13" lengthAdjust="spacing" textLength="8" x="376.0625" y="361.7587">1</text><!--MD5=[6f1b2f6f369df3e3c2be7d2798026434]
link apoint1080 to Article--><path d="M384.017,445.561 C381.461,453.823 369.226,493.373 358.533,527.939 " fill="none" id="apoint1080-Article" style="stroke:#A80036;stroke-width:1.0;"/><text fill="#000000" font-family="sans-serif" font-size="13" lengthAdjust="spacing" textLength="23" x="336.2419" y="516.8691">0..*</text><!--MD5=[2b59b8a35f2f03e987b56ec0ba929308]
link apoint1080 to Reagir--><path d="M386.766,443 C412.978,443 439.19,443 465.402,443 " fill="none" id="apoint1080-Reagir" style="stroke:#A80036;stroke-width:1.0;stroke-dasharray:7.0,7.0;"/><!--MD5=[dab3db3120c7b885ac0655b80a8a7dd7]
reverse link Reagir to Jaime--><path codeLine="51" d="M536.208,481.696 C549.813,496.129 565.426,512.78 579.5,528 C589.137,538.422 599.724,550.0427 608.665,559.9072 " fill="none" id="Reagir-backto-Jaime" style="stroke:#A80036;stroke-width:1.0;"/><polygon fill="none" points="531.045,486.423,522.401,467.077,541.223,476.811,531.045,486.423" style="stroke:#A80036;stroke-width:1.0;"/><!--MD5=[da63741647041283182e3b40093db239]
reverse link Reagir to Commentaire--><path codeLine="52" d="M500.5,487.472 C500.5,504.484 500.5,523.927 500.5,540.8127 " fill="none" id="Reagir-backto-Commentaire" style="stroke:#A80036;stroke-width:1.0;"/><polygon fill="none" points="493.5,487.266,500.5,467.265,507.5,487.265,493.5,487.266" style="stroke:#A80036;stroke-width:1.0;"/><!--MD5=[8be3eece1fac44a382a8b1a340aef994]
@startuml
class User{
    -username : string
    -password : string
    -firstName : string
    -lastName : string
    -email : string
    -date_naiss : datetime
    }
    

class Message{
    -Msg : string
    -date_envoi : datetime
    -isRead : boolean
    }
    
    
class Article{
    -titre : string
    -categorie : string
    -image
    -video
    -nbreJaimeArt : int
    }

class Friend
class Reagir
class Jaime

class Commentaire{
    -comment : string
    -image
    -nbJaimeCom : int
    }



<> diamond
Message . diamond
diamond - "1" User
diamond - "*" User : envoyer

<> diamond1
Friend .. diamond1
diamond1 - - "1" User
diamond1 - - "*" User : isFriend

User "1" - - "0..*" Article : poster
(User, Article) . Reagir

Reagir <|- - Jaime
Reagir <|- - Commentaire
@enduml

PlantUML version 1.2021.2beta14(Unknown compile time)
(GPL source distribution)
Java Runtime: Java(TM) SE Runtime Environment
JVM: Java HotSpot(TM) 64-Bit Server VM
Default Encoding: UTF-8
Language: en
Country: US
--></g></svg>