<?xml version="1.0" encoding="UTF-8" standalone="no"?><svg xmlns="http://www.w3.org/2000/svg" xmlns:xlink="http://www.w3.org/1999/xlink" contentScriptType="application/ecmascript" contentStyleType="text/css" height="608px" preserveAspectRatio="none" style="width:1095px;height:608px;" version="1.1" viewBox="0 0 1095 608" width="1095px" zoomAndPan="magnify"><defs><filter height="300%" id="f16367xyk25njy" width="300%" x="-1" y="-1"><feGaussianBlur result="blurOut" stdDeviation="2.0"/><feColorMatrix in="blurOut" result="blurOut2" type="matrix" values="0 0 0 0 0 0 0 0 0 0 0 0 0 0 0 0 0 0 .4 0"/><feOffset dx="4.0" dy="4.0" in="blurOut2" result="blurOut3"/><feBlend in="SourceGraphic" in2="blurOut3" mode="normal"/></filter></defs><g><!--MD5=[99b31deea5d7419a569cd5090bf83263]
cluster System--><rect fill="#FFFFFF" filter="url(#f16367xyk25njy)" height="494" style="stroke:#000000;stroke-width:1.5;" width="1076" x="7" y="102"/><text fill="#000000" font-family="sans-serif" font-size="14" font-weight="bold" lengthAdjust="spacing" textLength="60" x="515" y="116.9951">System</text><ellipse cx="967.3073" cy="387.8615" fill="#FEFECE" filter="url(#f16367xyk25njy)" rx="72.3073" ry="16.8615" style="stroke:#A80036;stroke-width:1.5;"/><text fill="#000000" font-family="sans-serif" font-size="14" lengthAdjust="spacing" textLength="99" x="914.8073" y="391.609">S'authentifier</text><ellipse cx="567.8149" cy="544.763" fill="#FEFECE" filter="url(#f16367xyk25njy)" rx="161.8149" ry="34.763" style="stroke:#A80036;stroke-width:1.5;"/><text fill="#000000" font-family="sans-serif" font-size="14" lengthAdjust="spacing" textLength="295" x="420.3149" y="547.6097">Visualiser des articles ou des publications</text><ellipse cx="567.8417" cy="174.7683" fill="#FEFECE" filter="url(#f16367xyk25njy)" rx="176.8417" ry="37.7683" style="stroke:#A80036;stroke-width:1.5;"/><text fill="#000000" font-family="sans-serif" font-size="14" lengthAdjust="spacing" textLength="326" x="404.8417" y="177.615">Entrer en discussion avec d'autres utilisateurs</text><ellipse cx="567.898" cy="285.8796" fill="#FEFECE" filter="url(#f16367xyk25njy)" rx="174.898" ry="37.3796" style="stroke:#A80036;stroke-width:1.5;"/><text fill="#000000" font-family="sans-serif" font-size="14" lengthAdjust="spacing" textLength="322" x="406.898" y="288.7263">Recevoir et accepter des demandes d'amitié</text><ellipse cx="568.2481" cy="451.8496" fill="#FEFECE" filter="url(#f16367xyk25njy)" rx="102.2481" ry="22.8496" style="stroke:#A80036;stroke-width:1.5;"/><text fill="#000000" font-family="sans-serif" font-size="14" lengthAdjust="spacing" textLength="169" x="483.7481" y="454.6963">Visiter la page d'accueil</text><ellipse cx="567.8844" cy="375.9769" fill="#FEFECE" filter="url(#f16367xyk25njy)" rx="75.3844" ry="17.4769" style="stroke:#A80036;stroke-width:1.5;"/><text fill="#000000" font-family="sans-serif" font-size="14" lengthAdjust="spacing" textLength="107" x="511.3844" y="379.7244">Visiter le profil</text><ellipse cx="967.6147" cy="240.1229" fill="#FEFECE" filter="url(#f16367xyk25njy)" rx="98.6147" ry="22.1229" style="stroke:#A80036;stroke-width:1.5;"/><text fill="#000000" font-family="sans-serif" font-size="14" lengthAdjust="spacing" textLength="161" x="887.1147" y="242.9696">Envoyer des messages</text><ellipse cx="967.5203" cy="159.8041" fill="#FEFECE" filter="url(#f16367xyk25njy)" rx="99.5203" ry="22.3041" style="stroke:#A80036;stroke-width:1.5;"/><text fill="#000000" font-family="sans-serif" font-size="14" lengthAdjust="spacing" textLength="163" x="886.0203" y="162.6507">Chercher un utilisateur</text><ellipse cx="142.1107" cy="474.0221" fill="#FEFECE" filter="url(#f16367xyk25njy)" rx="80.6107" ry="18.5221" style="stroke:#A80036;stroke-width:1.5;"/><text fill="#000000" font-family="sans-serif" font-size="14" lengthAdjust="spacing" textLength="120" x="80.6726" y="477.3348">Partager l'article</text><ellipse cx="141.8973" cy="554.1795" fill="#FEFECE" filter="url(#f16367xyk25njy)" rx="118.8973" ry="26.1795" style="stroke:#A80036;stroke-width:1.5;"/><text fill="#000000" font-family="sans-serif" font-size="14" lengthAdjust="spacing" textLength="205" x="39.3973" y="557.0261">Ajouter une mention "jaime"</text><ellipse cx="141.9431" cy="400.1886" fill="#FEFECE" filter="url(#f16367xyk25njy)" rx="91.4431" ry="20.6886" style="stroke:#A80036;stroke-width:1.5;"/><text fill="#000000" font-family="sans-serif" font-size="14" lengthAdjust="spacing" textLength="145" x="69.4431" y="403.0353">Commenter l'article</text><ellipse cx="141.7754" cy="327.0551" fill="#FEFECE" filter="url(#f16367xyk25njy)" rx="75.7754" ry="17.5551" style="stroke:#A80036;stroke-width:1.5;"/><text fill="#000000" font-family="sans-serif" font-size="14" lengthAdjust="spacing" textLength="108" x="84.7754" y="330.8026">Publier un post</text><ellipse cx="141.9431" cy="254.1886" fill="#FEFECE" filter="url(#f16367xyk25njy)" rx="91.4431" ry="20.6886" style="stroke:#A80036;stroke-width:1.5;"/><text fill="#000000" font-family="sans-serif" font-size="14" lengthAdjust="spacing" textLength="145" x="69.4431" y="257.0353">Voir les publications</text><!--MD5=[db8075859b8dc6afee89c0188a9ca649]
entity Utilisateur--><ellipse cx="142" cy="14" fill="#FEFECE" filter="url(#f16367xyk25njy)" rx="8" ry="8" style="stroke:#A80036;stroke-width:1.5;"/><path d="M142,22 L142,49 M129,30 L155,30 M142,49 L129,64 M142,49 L155,64 " fill="none" filter="url(#f16367xyk25njy)" style="stroke:#A80036;stroke-width:1.5;"/><text fill="#000000" font-family="sans-serif" font-size="14" lengthAdjust="spacing" textLength="73" x="105.5" y="82.4951">Utilisateur</text><!--MD5=[f62beaf8a480610e7ed6fe3e698d7043]
link Utilisateur to Visualiser des articles ou des publications--><path d="M178.754,60.607 C204.664,73.508 238.893,94.065 261,121 C284.039,149.07 270.52,167.012 291,197 C314.944,232.059 341.554,224.26 361,262 C408.42,354.03 323.805,414.241 391,493 C401.776,505.63 415.457,515.2736 430.415,522.6222 " fill="none" id="Utilisateur-to-Visualiser des articles ou des publications" style="stroke:#A80036;stroke-width:1.0;"/><polygon fill="#A80036" points="435.096,524.8299,428.6622,517.373,430.5737,522.697,425.2496,524.6086,435.096,524.8299" style="stroke:#A80036;stroke-width:1.0;"/><!--MD5=[a671d88689614470e3cbcfa670fbfab0]
link Utilisateur to Entrer en discussion avec d'autres utilisateurs--><path d="M178.529,44.725 C222.347,45.294 298.678,49.261 361,68 C412.945,83.619 467.213,112.392 507.002,136.17 " fill="none" id="Utilisateur-to-Entrer en discussion avec d'autres utilisateurs" style="stroke:#A80036;stroke-width:1.0;"/><polygon fill="#A80036" points="511.293,138.748,505.6395,130.6834,507.0074,136.1724,501.5185,137.5403,511.293,138.748" style="stroke:#A80036;stroke-width:1.0;"/><!--MD5=[9f323e688fc18ecfd02e3dc8e1caac3f]
link Utilisateur to Recevoir et accepter des demandes d'amitié--><path d="M178.68,45.302 C227.001,47.715 312.739,59.429 361,110 C399.252,150.083 353.012,190.667 391,231 C402.04,242.721 415.535,251.959 430.095,259.238 " fill="none" id="Utilisateur-to-Recevoir et accepter des demandes d'amitié" style="stroke:#A80036;stroke-width:1.0;"/><polygon fill="#A80036" points="434.647,261.435,428.2788,253.9219,430.1436,259.2626,424.8029,261.1273,434.647,261.435" style="stroke:#A80036;stroke-width:1.0;"/><!--MD5=[e1c37992f1f2f2df0e7c5c5fde320381]
link Utilisateur to Visiter la page d'accueil--><path d="M178.681,65.255 C202.816,79.6 234.922,99.963 261,121 C275.676,132.839 276.259,139.242 291,151 C319.728,173.914 341.052,164.139 361,195 C413.613,276.398 325.65,339.424 391,411 C409.222,430.958 435.108,442.127 461.437,448.162 " fill="none" id="Utilisateur-to-Visiter la page d'accueil" style="stroke:#A80036;stroke-width:1.0;"/><polygon fill="#A80036" points="466.356,449.23,458.4087,443.4127,461.4697,448.1699,456.7125,451.2308,466.356,449.23" style="stroke:#A80036;stroke-width:1.0;"/><!--MD5=[03ce6e874f4adca72c02c8c09b0d367d]
link Utilisateur to Visiter le profil--><path d="M178.951,60.468 C237.774,86.092 349.262,136.101 361,152 C411.517,220.424 332.04,279.702 391,341 C416.01,367.002 454.408,376.641 488.964,379.401 " fill="none" id="Utilisateur-to-Visiter le profil" style="stroke:#A80036;stroke-width:1.0;"/><polygon fill="#A80036" points="494.032,379.759,485.3368,375.1338,489.0445,379.4061,484.7721,383.1138,494.032,379.759" style="stroke:#A80036;stroke-width:1.0;"/><!--MD5=[5ace7f6e6e30d17c442efcd368ee9b0c]
link Visualiser des articles ou des publications to S'authentifier--><path d="M670.356,517.799 C695.014,510.431 721.147,501.984 745,493 C787.616,476.95 796.825,469.45 838,450 C869.31,435.209 904.745,418.083 930.462,405.584 " fill="none" id="Visualiser des articles ou des publications-to-S'authentifier" style="stroke:#A80036;stroke-width:1.0;stroke-dasharray:7.0,7.0;"/><polygon fill="#A80036" points="935.147,403.305,925.304,403.6441,930.6506,405.4918,928.8029,410.8384,935.147,403.305" style="stroke:#A80036;stroke-width:1.0;"/><text fill="#000000" font-family="sans-serif" font-size="13" lengthAdjust="spacing" textLength="61" x="776" y="446.0669">«include»</text><!--MD5=[9310743cea8e57a30a0337a78fdb832a]
link Entrer en discussion avec d'autres utilisateurs to S'authentifier--><path d="M679.973,204.558 C702.012,212.016 724.624,220.845 745,231 C823.558,270.15 905.028,335.415 943.608,368.088 " fill="none" id="Entrer en discussion avec d'autres utilisateurs-to-S'authentifier" style="stroke:#A80036;stroke-width:1.0;stroke-dasharray:7.0,7.0;"/><polygon fill="#A80036" points="947.652,371.527,943.3869,362.6496,943.8429,368.288,938.2045,368.7441,947.652,371.527" style="stroke:#A80036;stroke-width:1.0;"/><text fill="#000000" font-family="sans-serif" font-size="13" lengthAdjust="spacing" textLength="61" x="776" y="244.0669">«include»</text><!--MD5=[016daab5e06ec7d0c5a7446a93ddf93c]
link Recevoir et accepter des demandes d'amitié to S'authentifier--><path d="M680.784,314.684 C756.723,334.17 853.762,359.071 912.963,374.262 " fill="none" id="Recevoir et accepter des demandes d'amitié-to-S'authentifier" style="stroke:#A80036;stroke-width:1.0;stroke-dasharray:7.0,7.0;"/><polygon fill="#A80036" points="917.864,375.52,910.1408,369.4083,913.0209,374.2771,908.1522,377.1572,917.864,375.52" style="stroke:#A80036;stroke-width:1.0;"/><text fill="#000000" font-family="sans-serif" font-size="13" lengthAdjust="spacing" textLength="61" x="776" y="336.0669">«include»</text><!--MD5=[0aaf08f9257b67816372ed142ca5fbd4]
link Visiter la page d'accueil to S'authentifier--><path d="M659.563,441.747 C711.873,435.358 778.83,426.388 838,416 C862.043,411.779 888.417,406.2 910.98,401.133 " fill="none" id="Visiter la page d'accueil-to-S'authentifier" style="stroke:#A80036;stroke-width:1.0;stroke-dasharray:7.0,7.0;"/><polygon fill="#A80036" points="916.032,399.993,906.3719,398.0738,911.1548,401.0944,908.1342,405.8773,916.032,399.993" style="stroke:#A80036;stroke-width:1.0;"/><text fill="#000000" font-family="sans-serif" font-size="13" lengthAdjust="spacing" textLength="61" x="776" y="412.0669">«include»</text><!--MD5=[695c49e863da993f0b8c932a4ab88aed]
link Visiter le profil to S'authentifier--><path d="M638.539,382.327 C678.436,385.641 729.49,389.345 775,391 C802.982,392.017 810.002,391.327 838,391 C854.885,390.803 873.016,390.46 890.18,390.075 " fill="none" id="Visiter le profil-to-S'authentifier" style="stroke:#A80036;stroke-width:1.0;stroke-dasharray:7.0,7.0;"/><polygon fill="#A80036" points="895.474,389.954,886.3849,386.1608,890.4753,390.0683,886.5678,394.1587,895.474,389.954" style="stroke:#A80036;stroke-width:1.0;"/><text fill="#000000" font-family="sans-serif" font-size="13" lengthAdjust="spacing" textLength="61" x="776" y="387.0669">«include»</text><!--MD5=[804b50db8a40fc339de90a529f56ddc1]
link Entrer en discussion avec d'autres utilisateurs to Envoyer des messages--><path d="M709.423,197.962 C767.206,207.411 832.206,218.04 882.389,226.246 " fill="none" id="Entrer en discussion avec d'autres utilisateurs-to-Envoyer des messages" style="stroke:#A80036;stroke-width:1.0;stroke-dasharray:7.0,7.0;"/><polygon fill="#A80036" points="887.506,227.083,879.2698,221.6826,882.5716,226.2758,877.9783,229.5776,887.506,227.083" style="stroke:#A80036;stroke-width:1.0;"/><text fill="#000000" font-family="sans-serif" font-size="13" lengthAdjust="spacing" textLength="61" x="776" y="205.0669">«include»</text><!--MD5=[8e916930cd6ade8e41b9cea4ebe859f7]
link Entrer en discussion avec d'autres utilisateurs to Chercher un utilisateur--><path d="M742.482,168.454 C783.829,166.893 826.659,165.277 863.656,163.881 " fill="none" id="Entrer en discussion avec d'autres utilisateurs-to-Chercher un utilisateur" style="stroke:#A80036;stroke-width:1.0;stroke-dasharray:7.0,7.0;"/><polygon fill="#A80036" points="869.072,163.677,859.9276,160.0192,864.0756,163.8655,860.2292,168.0135,869.072,163.677" style="stroke:#A80036;stroke-width:1.0;"/><text fill="#000000" font-family="sans-serif" font-size="13" lengthAdjust="spacing" textLength="61" x="776" y="160.0669">«include»</text><!--MD5=[7516c807b34c1cef0d567469822d794d]
link Partager l'article to Visualiser des articles ou des publications--><path d="M207.858,484.861 C267.899,494.915 359.011,510.172 434.438,522.8022 " fill="none" id="Partager l'article-to-Visualiser des articles ou des publications" style="stroke:#A80036;stroke-width:1.0;stroke-dasharray:7.0,7.0;"/><polygon fill="#A80036" points="439.383,523.6303,431.1671,518.199,434.4516,522.8046,429.846,526.0891,439.383,523.6303" style="stroke:#A80036;stroke-width:1.0;"/><text fill="#000000" font-family="sans-serif" font-size="13" lengthAdjust="spacing" textLength="68" x="292" y="494.0669">«extends»</text><!--MD5=[ce0005944ebe9281278551d583e3e60d]
link Ajouter une mention "jaime" to Visualiser des articles ou des publications--><path d="M260.545,551.505 C304.172,550.5789 354.508,549.5104 401.613,548.5106 " fill="none" id="Ajouter une mention &quot;jaime&quot;-to-Visualiser des articles ou des publications" style="stroke:#A80036;stroke-width:1.0;stroke-dasharray:7.0,7.0;"/><polygon fill="#A80036" points="406.749,548.4015,397.6654,544.5953,401.7501,548.5086,397.8368,552.5934,406.749,548.4015" style="stroke:#A80036;stroke-width:1.0;"/><text fill="#000000" font-family="sans-serif" font-size="13" lengthAdjust="spacing" textLength="68" x="292" y="545.0669">«extends»</text><!--MD5=[30cadf7fa7c04b2e93eb5692f521645d]
link Commenter l'article to Visualiser des articles ou des publications--><path d="M195.666,416.648 C216.104,423.191 239.68,430.837 261,438 C305.636,452.996 318.856,451.997 361,473 C375.342,480.148 376.486,486.209 391,493 C410.988,502.352 433.043,510.451 454.584,517.2884 " fill="none" id="Commenter l'article-to-Visualiser des articles ou des publications" style="stroke:#A80036;stroke-width:1.0;stroke-dasharray:7.0,7.0;"/><polygon fill="#A80036" points="459.462,518.8183,452.0725,512.3071,454.6914,517.3212,449.6772,519.9401,459.462,518.8183" style="stroke:#A80036;stroke-width:1.0;"/><text fill="#000000" font-family="sans-serif" font-size="13" lengthAdjust="spacing" textLength="68" x="292" y="443.0669">«extends»</text><!--MD5=[198bf934f040e0237e5cf42f2ae46e36]
link Publier un post to Visiter la page d'accueil--><path d="M204.648,337.03 C249.702,345.982 311.345,361.673 361,387 C376.211,394.758 375.638,403.545 391,411 C417.173,423.701 447.477,432.581 475.486,438.741 " fill="none" id="Publier un post-to-Visiter la page d'accueil" style="stroke:#A80036;stroke-width:1.0;stroke-dasharray:7.0,7.0;"/><polygon fill="#A80036" points="480.687,439.859,472.7293,434.056,475.7988,438.8076,471.0471,441.8771,480.687,439.859" style="stroke:#A80036;stroke-width:1.0;"/><text fill="#000000" font-family="sans-serif" font-size="13" lengthAdjust="spacing" textLength="68" x="292" y="355.0669">«extends»</text><!--MD5=[ae63e86d63428daaced5cb238e26e0a1]
link Voir les publications to Visiter le profil--><path d="M214.816,266.528 C258.762,276.077 315.16,291.789 361,316 C376.347,324.106 375.338,333.521 391,341 C422.222,355.91 459.478,364.47 491.656,369.384 " fill="none" id="Voir les publications-to-Visiter le profil" style="stroke:#A80036;stroke-width:1.0;stroke-dasharray:7.0,7.0;"/><polygon fill="#A80036" points="496.775,370.142,488.4585,364.866,491.829,369.4091,487.2859,372.7796,496.775,370.142" style="stroke:#A80036;stroke-width:1.0;"/><text fill="#000000" font-family="sans-serif" font-size="13" lengthAdjust="spacing" textLength="68" x="292" y="283.0669">«extends»</text><!--MD5=[a053a87393f4a80bfc9be92fc6b28f13]
@startuml
left to right direction

rectangle System {
    (S'authentifier)
    (Visualiser des articles ou des publications) 
    (Entrer en discussion avec d'autres utilisateurs)
    (Recevoir et accepter des demandes d'amitié)
    (Visiter la page d'accueil)
    (Visiter le profil)
    (Envoyer des messages)
    (Chercher un utilisateur)
    (Partager l'article)
    (Ajouter une mention "jaime")
    (Commenter l'article)
    (Publier un post)
    (Voir les publications)
}

Utilisateur -right-> (Visualiser des articles ou des publications)
Utilisateur -right-> (Entrer en discussion avec d'autres utilisateurs)
Utilisateur -right-> (Recevoir et accepter des demandes d'amitié)
Utilisateur -down-> (Visiter la page d'accueil)
Utilisateur -down-> (Visiter le profil)

(Visualiser des articles ou des publications)..> (S'authentifier) :<<include>>
(Entrer en discussion avec d'autres utilisateurs)..> (S'authentifier) :<<include>>
(Recevoir et accepter des demandes d'amitié)..> (S'authentifier) :<<include>>
(Visiter la page d'accueil)..> (S'authentifier) :<<include>>
(Visiter le profil)..> (S'authentifier) :<<include>>


(Entrer en discussion avec d'autres utilisateurs)..> (Envoyer des messages) :<<include>>
(Entrer en discussion avec d'autres utilisateurs)..> (Chercher un utilisateur) :<<include>>




(Partager l'article)..> (Visualiser des articles ou des publications) :<<extends>>
(Ajouter une mention "jaime")..> (Visualiser des articles ou des publications) :<<extends>>
(Commenter l'article)..> (Visualiser des articles ou des publications) :<<extends>>

(Publier un post)..> (Visiter la page d'accueil) :<<extends>>

(Voir les publications)..> (Visiter le profil) :<<extends>>
@enduml

PlantUML version 1.2021.2beta14(Unknown compile time)
(GPL source distribution)
Java Runtime: Java(TM) SE Runtime Environment
JVM: Java HotSpot(TM) 64-Bit Server VM
Default Encoding: UTF-8
Language: en
Country: US
--></g></svg>